<svg xmlns="http://www.w3.org/2000/svg" xmlns:xlink="http://www.w3.org/1999/xlink" version="1.1" x="0px" y="0px" width="100px" height="100px" viewBox="0 0 100 100" enable-background="new 0 0 100 100" xml:space="preserve">
<g id="Captions">
	<rect x="-192" width="185" height="99"/>
	<rect y="-36" width="100" height="30"/>
	<text transform="matrix(1 0 0 1 66 -19.5)" fill="#000000" font-family="'Helvetica'" font-size="2.4">http://thenounproject.com</text>
	<text transform="matrix(1 0 0 1 7.166 -24.5)"><tspan x="0" y="0" fill="#000000" font-family="'Helvetica-Bold'" font-size="6.1578">The Noun Project</tspan><tspan x="1.12" y="4.8" fill="#000000" font-family="'Helvetica-Bold'" font-size="4">Icon Template</tspan></text>
	<text transform="matrix(1 0 0 1 -178.5 10.5)" fill="#000000" font-family="'Helvetica-Bold'" font-size="6.1578">Reminders</text>
	<line fill="#000000" stroke="#FFFFFF" stroke-miterlimit="10" x1="8" y1="-14.5" x2="18" y2="-14.5"/>
	<line fill="#000000" stroke="#FFFFFF" stroke-miterlimit="10" x1="-179" y1="16.5" x2="-162" y2="16.5"/>
	<g>
		<g>
			<g>
				<rect x="-170.802" y="31.318" fill="#000000" width="8.721" height="8.642"/>
				<path fill="#000000" d="M-164.455,42.312h4.747v-4.703h-4.747V42.312z M-159.266,42.749h-5.63V37.17h5.63V42.749      L-159.266,42.749z M-166.221,44.062h8.279v-8.203h-8.279V44.062L-166.221,44.062z M-157.5,44.5h-9.163v-9.079h9.163V44.5      L-157.5,44.5z"/>
				<polygon fill="#000000" points="-166.149,44.133 -166.292,43.991 -158.013,35.787 -157.871,35.929     "/>
			</g>
		</g>
	</g>
	<rect x="-179" y="58" fill="none" width="35" height="32.5"/>
	<text transform="matrix(1 0 0 1 -179 60.1543)"><tspan x="0" y="0" fill="#000000" font-family="'Helvetica-Bold'" font-size="3">Strokes</tspan><tspan x="0" y="5" fill="#000000" font-family="'Helvetica'" font-size="2.4">Try to keep strokes at 4px</tspan><tspan x="0" y="10" fill="#000000" font-family="'Helvetica'" font-size="2.4">Minimum stroke weight is 2px</tspan><tspan x="0" y="14.5" fill="#000000" font-family="'Helvetica'" font-size="2.4">For thicker strokes use even </tspan><tspan x="0" y="17.5" fill="#000000" font-family="'Helvetica'" font-size="2.4">numbers: 6px, 8px etc.</tspan><tspan x="0" y="22" fill="#000000" font-family="'Helvetica-Bold'" font-size="2.4">Remember to expand strokes </tspan><tspan x="0" y="25" fill="#000000" font-family="'Helvetica-Bold'" font-size="2.4">before saving as an SVG </tspan></text>
	<rect x="-136.5" y="58" fill="none" width="35" height="32.5"/>
	<text transform="matrix(1 0 0 1 -136.5 60.1543)"><tspan x="0" y="0" fill="#000000" font-family="'Helvetica-Bold'" font-size="3">Size</tspan><tspan x="0" y="5" fill="#000000" font-family="'Helvetica'" font-size="2.4">Cannot be wider or taller than </tspan><tspan x="0" y="8.5" fill="#000000" font-family="'Helvetica'" font-size="2.4">100px (artboard size)</tspan><tspan x="0" y="13.5" fill="#000000" font-family="'Helvetica'" font-size="2.4">Scale your icon to fill as much of </tspan><tspan x="0" y="16.5" fill="#000000" font-family="'Helvetica'" font-size="2.4">the artboard as possible</tspan></text>
	<rect x="-94" y="58" fill="none" width="35" height="32.5"/>
	<text transform="matrix(1 0 0 1 -94 60.1543)"><tspan x="0" y="0" fill="#000000" font-family="'Helvetica-Bold'" font-size="3">Ungroup</tspan><tspan x="0" y="5" fill="#000000" font-family="'Helvetica'" font-size="2.4">If your design has more than one </tspan><tspan x="0" y="8" fill="#000000" font-family="'Helvetica'" font-size="2.4">shape, make sure to ungroup</tspan></text>
	<rect x="-50" y="58" fill="none" width="35" height="32.5"/>
	<text transform="matrix(1 0 0 1 -50 60.1543)"><tspan x="0" y="0" fill="#000000" font-family="'Helvetica-Bold'" font-size="3">Save as</tspan><tspan x="0" y="5" fill="#000000" font-family="'Helvetica'" font-size="2.4">Save as .SVG and make sure </tspan><tspan x="0" y="8" fill="#000000" font-family="'Helvetica'" font-size="2.4">&#8220;Use Artboards&#8221; is checked</tspan></text>
	<text transform="matrix(1.0074 0 0 1 -125.542 30.5933)" fill="#000000" font-family="'Helvetica'" font-size="2.5731">100px</text>
	<text transform="matrix(1.0074 0 0 1 -41 39)" fill="#000000" font-family="'Helvetica-Bold'" font-size="5.1462">.SVG</text>
	<rect x="-126.514" y="34.815" fill="#000000" width="10.261" height="10.185"/>
	<rect x="-126.477" y="31.766" fill="#000000" width="0.522" height="2.337"/>
	<rect x="-116.813" y="31.766" fill="#000000" width="0.523" height="2.337"/>
	<rect x="-127" y="32.337" fill="#000000" width="11.233" height="0.572"/>
	<g>
		<rect x="-83.805" y="33.844" fill="#000000" width="10.305" height="10.156"/>
		<rect x="-76.809" y="28.707" fill="#000000" width="3.308" height="3.261"/>
	</g>
	<rect x="-178.5" y="22.5" fill="#000000" stroke="#FFFFFF" stroke-miterlimit="10" width="30" height="30"/>
	<rect x="-136.5" y="22.5" fill="#000000" stroke="#FFFFFF" stroke-miterlimit="10" width="30" height="30"/>
	<rect x="-93.5" y="22.5" fill="#000000" stroke="#FFFFFF" stroke-miterlimit="10" width="30" height="30"/>
	<rect x="-49.5" y="22.5" fill="#000000" stroke="#FFFFFF" stroke-miterlimit="10" width="30" height="30"/>
</g>
<g id="basketball" display="none">
	<path display="inline" d="M15.752,77.931C15.544,72.33,32.122,18.659,70.911,5.175C54.316-3.122,33.366,0.405,22.788,8.079   C-8.387,40.505,9.06,72.776,15.752,77.931z"/>
	<path display="inline" d="M17.81,79.849c25.928,16.181,80.776-45.651,73.636-56.835C87.713,15.754,80.005,9.785,73.675,6.438   C66.036,3.03,24.24,40.853,17.81,79.849z"/>
	<path display="inline" d="M19.209,10.88c-3.369,1.382-35.513,31.422-8.452,69.798c0,0,3.643,3.712,5.037,4.073   c-0.077-2.955-0.18-3.755-0.205-4.917C13.006,78.635-11.462,46.271,19.209,10.88z"/>
	<path display="inline" d="M17.632,81.367c27.628,19.711,84.01-48.125,75.362-55.762c0.667,0.761,15.341,23.242,0.111,48.968   C76.483,102.65,32.344,98.832,17.969,86.254C17.071,83.782,17.352,83.221,17.632,81.367z"/>
	<path display="inline" d="M18.567,87.517l-0.037,0.979c35.715,26.734,67.892-2.636,69.811-7.13   C72.159,98.439,40.505,103.437,18.567,87.517z"/>
</g>
<g id="Layer_3">
	
		<path d="M58.453,85.914c2.112-6.338,16.901-24.295,26.407-27.464c4.226,10.563,9.507,29.577,6.338,32.746   S63.734,88.027,58.453,85.914z"/>
	<path d="M85.917,58.45c2.112-1.056,5.281-3.169,9.507,1.057c2.112,2.112,4.226,29.576-2.112,30.633   C93.312,84.858,92.255,69.014,85.917,58.45z"/>
	<path d="M73.627,36.165c-0.084,0.038-0.173,0.067-0.256,0.108c-0.635,0.312-1.234,0.69-1.726,1.13   c-0.24,0.222-0.468,0.449-0.62,0.702c-0.431,0.078-0.845,0.159-1.382,0.448c-0.334-0.473-0.387-1.105-0.366-1.67   c0.3-0.393,0.611-0.747,0.956-1.051c0.653-0.583,1.368-1.026,2.106-1.398c-0.899-1.178-1.881-2.401-2.926-3.65   c-0.257,0.091-0.513,0.183-0.758,0.291c-0.626,0.274-1.22,0.604-1.702,0.995c-0.236,0.197-0.458,0.397-0.603,0.625   c-0.418,0.044-0.824,0.092-1.361,0.36c-0.334-0.458-0.379-1.086-0.344-1.643c0.31-0.375,0.629-0.706,0.979-0.983   c0.691-0.557,1.434-0.957,2.186-1.289c0.05-0.022,0.101-0.037,0.15-0.058c-1.048-1.207-2.158-2.432-3.304-3.66   c-0.483,0.419-0.961,0.908-1.474,1.414l-0.845,0.813c-0.503,0.027-1.025,0.051-1.578-0.093c0.051-0.581,0.105-1.032,0.159-1.501   c0.272-0.214,0.518-0.471,0.78-0.724c0.469-0.461,0.955-0.957,1.503-1.441c-1.257-1.309-2.561-2.612-3.893-3.898   c-0.013,0.007-0.028,0.011-0.04,0.018c-0.558,0.295-1.04,0.673-1.401,1.124c-0.177,0.228-0.342,0.465-0.444,0.735   c-0.409,0.137-0.805,0.319-1.317,0.611c-0.359-0.438-0.524-0.97-0.618-1.509c0.212-0.407,0.442-0.807,0.732-1.16   c0.43-0.536,0.944-0.979,1.495-1.336c-1.3-1.216-2.623-2.404-3.958-3.556c-0.479,0.186-0.914,0.418-1.252,0.709   c-0.233,0.205-0.438,0.422-0.56,0.686c-0.42,0.112-0.83,0.295-1.338,0.667c-0.373-0.459-0.518-1.087-0.523-1.71   c0.287-0.475,0.64-0.906,1.047-1.247c0.276-0.235,0.569-0.424,0.867-0.595c-1.063-0.882-2.127-1.72-3.191-2.536   c-0.487,0.264-0.958,0.556-1.375,0.904c-0.287,0.245-0.567,0.496-0.786,0.786c-0.48,0.084-0.94,0.182-1.537,0.38   c-0.205-0.572-0.167-1.188-0.089-1.761c0.341-0.369,0.684-0.72,1.061-1.028c0.288-0.239,0.596-0.444,0.903-0.649   c-0.821-0.598-1.637-1.161-2.449-1.707c-0.492,0.185-0.963,0.396-1.361,0.664c-0.26,0.181-0.505,0.368-0.674,0.593   c-0.429,0.021-0.847,0.058-1.41,0.293c-0.289-0.498-0.283-1.134-0.194-1.7c0.348-0.363,0.709-0.682,1.096-0.938   c0.146-0.097,0.294-0.183,0.442-0.268c-2.911-1.799-5.716-3.195-8.277-3.995C20.338,9.333,14.529,13.118,2.469,33.099   c2.112,7.394,7.394,29.577,43.308,46.477c2.113-9.507,15.845-26.407,32.746-33.801C78.523,43.855,76.662,40.365,73.627,36.165z"/>
	<path d="M89.086,94.365C7.75,80.633,1.413,32.043,1.413,32.043s-3.168,25.352,25.352,48.59   C56.341,103.871,95.16,95.39,89.086,94.365z"/>
	<path d="M1.941,24.649C3.525,14.614,4.318,10.917,8.015,7.396c4.93-4.929,10.563-5.105,20.07-5.633   C14.441,5.107,5.374,16.814,1.941,24.649z"/>
	<path d="M36.271,2.466c2.397,1.202,4.647,2.429,6.786,3.67c0.441-0.207,0.887-0.376,1.335-0.519   c0.815-0.257,1.637-0.426,2.463-0.541c0.414-0.057,0.828-0.099,1.247-0.125c0.437,0.295,0.858,0.597,1.239,1.031l-1.108,1.078   c-0.363,0.022-0.727,0.059-1.088,0.108c-0.59,0.082-1.17,0.207-1.733,0.363c0.818,0.5,1.622,1,2.403,1.503   c0.235-0.127,0.465-0.266,0.709-0.376c0.875-0.389,1.804-0.672,2.787-0.794c0.492-0.059,0.997-0.077,1.51-0.034   c0.483,0.361,0.913,0.776,1.175,1.324c-0.551,0.25-0.976,0.491-1.352,0.781c-0.348-0.029-0.712-0.018-1.077,0.026   c-0.563,0.069-1.129,0.235-1.681,0.442c1.192,0.807,2.345,1.616,3.448,2.426c0.146-0.049,0.291-0.101,0.436-0.143   c0.903-0.26,1.8-0.392,2.685-0.472c0.441-0.039,0.882-0.064,1.318-0.079c0.447,0.306,0.878,0.613,1.299,1.037   c-0.421,0.423-0.833,0.74-1.228,1.075c-0.404,0.014-0.806,0.037-1.203,0.072c-0.386,0.034-0.768,0.082-1.141,0.144   c1.372,1.065,2.686,2.128,3.91,3.186c0.405-0.146,0.816-0.267,1.228-0.361c0.4-0.091,0.803-0.16,1.206-0.211   c0.441,0.268,0.857,0.55,1.245,0.96l-0.984,1.136c-0.276,0.035-0.549,0.086-0.818,0.143c1.263,1.151,2.446,2.293,3.547,3.417   c0.247-0.131,0.501-0.251,0.77-0.348c0.429-0.155,0.878-0.259,1.326-0.309c0.483,0.268,0.9,0.584,1.236,1.036   c-0.406,0.392-0.739,0.71-0.996,1.063c-0.271,0.031-0.531,0.096-0.786,0.183c1.287,1.389,2.467,2.75,3.526,4.063   c0.07-0.019,0.14-0.043,0.211-0.062c0.393-0.098,0.79-0.181,1.193-0.246c0.454,0.251,0.896,0.516,1.292,0.921l-0.955,1.164   c-0.101,0.016-0.202,0.043-0.303,0.063c0.93,1.231,1.765,2.417,2.509,3.542c0.337-0.114,0.677-0.223,1.026-0.307   c0.424-0.101,0.858-0.179,1.306-0.224c0.477,0.275,0.936,0.583,1.282,1.049c-0.437,0.379-0.77,0.703-1.077,1.054   c-0.335,0.033-0.679,0.094-1.02,0.175c-0.113,0.027-0.224,0.069-0.336,0.1c3.22,5.25,4.391,8.894,4.708,9.527   c3.984-1.105,7.917-1.645,11.19,0.891C74.847,7.815,39.969,1.607,36.271,2.466z"/>
</g>
</svg>