<svg xmlns:x="http://ns.adobe.com/Extensibility/1.0/" xmlns:i="http://ns.adobe.com/AdobeIllustrator/10.0/" xmlns:graph="http://ns.adobe.com/Graphs/1.0/" xmlns="http://www.w3.org/2000/svg" xmlns:xlink="http://www.w3.org/1999/xlink" version="1.1" x="0px" y="0px" width="100px" height="100px" viewBox="0 0 100 100" enable-background="new 0 0 100 100" xml:space="preserve">
<metadata>
	<sfw xmlns="http://ns.adobe.com/SaveForWeb/1.0/">
		<slices/>
		<sliceSourceBounds height="1780.628" width="870" bottomLeftOrigin="true" x="-192" y="-1744.628"/>
	</sfw>
</metadata>
<g id="Captions">
</g>
<g id="Your_Icon">
	<path fill="#000000" d="M49.854,94.883c-0.995,0-1.991-0.029-2.99-0.095c-8.72-0.666-16.729-3.559-23.823-8.598   c-1.859-1.364-3.604-2.883-5.202-4.529l-1.031-1.059l2.62-1.929l4.499,0.601c0.628-0.046,1.221-0.226,1.416-1.316   c0.03-0.4-0.07-1.026-1.276-1.316l-2.452-0.261l1.059-1.721c0.708-1.156,1.309-2.362,1.786-3.584l0.346-0.883l0.946,0.072   c0,0.01,0.077,0.003,0.395-0.107l5.881-2.135c0.178-0.085,1.003-0.46,0.558-1.786c-0.27-0.57-0.848-0.839-1.566-0.57l-5.347,2.017   l0.327-2.162c0.218-1.446,0.381-2.928,0.48-4.401l0.051-0.711l5.734-3.037c0.536-0.384,0.661-1.004,0.245-1.767   c-0.24-0.398-0.585-0.621-1-0.621c-0.144,0-0.358,0.022-0.754,0.208l-4.063,2.227l-0.117-2.021   c-0.038-0.626-0.085-1.244-0.153-1.856l-0.075-0.671l0.514-0.44c0.107-0.095,0.21-0.205,0.31-0.338l4.647-6.989   c0.162-0.354,0.285-0.971-0.661-1.791c-0.06-0.016-0.28-0.085-0.503-0.085c-0.4,0-0.783,0.25-1.136,0.738l-3.719,5.377   l-0.716-2.672c-0.229-0.852-0.479-1.702-0.758-2.543l-0.195-0.591l4.302-6.485c0.13-0.33,0.265-1.006-0.756-1.707   c-0.082-0.029-0.312-0.09-0.525-0.09c-0.143,0-0.573,0-1.078,0.661l-3.115,4.779l-0.989-2.037c-0.3-0.62-0.607-1.221-0.918-1.804   l-0.357-0.671l4.248-6.469c0.115-0.335,0.233-1.091-0.492-1.571c-0.724-0.506-1.254-0.351-1.697,0.348l-3.5,5.15l-0.931-2.122   c-1.609-3.671-2.103-7.545-1.467-11.503l0.065-0.396l0.272-0.285c7.784-8.192,17.389-12.912,28.541-14.028   c11.508-1.006,22,1.984,31.338,8.804c1.942,1.431,3.812,3.103,5.561,4.974L83.488,20l-0.901,0.876   c-0.415,0.405-0.825,0.811-1.233,1.222l-1.781,1.791l-0.514-3.261c-0.242-1.038-0.905-1.038-1.153-1.038   c-0.105,0-0.215,0.01-0.33,0.03c-0.559,0.093-1.196,0.37-1.182,1.711l0.881,4.795l-0.5,0.476c-0.485,0.46-0.979,0.936-1.481,1.426   l-1.826,1.779l-0.696-5.183c-0.245-0.605-0.686-0.91-1.311-0.91c-0.488,0.035-1.396,0.112-1.279,1.506l1.086,6.706l-0.548,0.466   c-0.889,0.756-1.762,1.526-2.622,2.307l-1.539,1.406l-1.326-4.774c-0.195-0.52-0.618-0.833-1.224-0.833   c-0.112,0-0.235,0.013-0.45,0.056c-0.626,0.178-0.894,0.688-0.69,1.496l1.581,5.923l-1.086,0.865   c-0.403,0.288-0.799,0.591-1.184,0.909l-1.451,1.198l-1.302-3.994c-0.192-0.47-0.558-0.75-1.053-0.75c-0.053,0-0.143,0-0.438,0.067   c-0.438,0.152-1.051,0.521-0.841,1.729l1.557,4.92l-0.578,0.551c-0.328,0.315-0.65,0.643-0.968,0.985l-1.294,1.401l-1.472-3.146   c-0.373-0.745-1.031-0.971-1.642-0.688c-0.445,0.185-0.705,0.415-0.801,0.686c-0.062,0.178-0.098,0.47,0.107,0.841l2.042,4.584   l-0.438,0.598c-0.421,0.573-0.813,1.169-1.179,1.784l-1.041,1.744l-2.74-4.113c-0.42-0.373-1.243-0.754-1.999-0.303   c-0.543,0.54-0.601,1.105-0.185,1.727l3.98,5.672l-0.215,0.618c-0.103,0.293-0.192,0.591-0.275,0.892l-0.626,2.267l-3.185-3.568   c-0.44-0.375-1.079-0.495-1.529,0.018c-0.431,0.365-0.586,0.598-0.62,0.849c-0.018,0.112-0.063,0.428,0.395,0.993l4.987,5.612   l0.083,0.871c0.085,0.66,0.188,1.437,0.298,2.194l0.35,2.457l-3.275-1.688c-0.631-0.313-1.221-0.195-1.684,0.407   c-0.218,0.474-0.376,1.194,0.743,1.992l4.952,2.609l0.138,0.556c0.252,1.011,0.6,2.027,1.033,3.021l1.078,2.465l-3.775-1.041   c-0.11-0.027-0.248-0.045-0.376-0.045c-0.7,0-0.976,0.545-1.081,1.006c-0.14,0.521-0.183,1.193,0.941,1.566l6.924,1.962l0.24,0.245   c0.34,0.355,0.69,0.7,1.048,1.041l1.534,1.446l-1.989,0.695c-0.192,0.065-0.338,0.165-0.463,0.306   c-0.19,0.225-0.275,0.578-0.24,1.016c0.022,0.226,0.098,0.976,1.301,1.181l0.476-0.12l5.327-0.28l0.285,0.131   c1.532,0.695,3.105,1.328,4.672,1.884l3.088,1.094l-3.01,1.291C62.264,93.637,56.161,94.883,49.854,94.883z M21.372,81.516   c1.011,0.924,2.071,1.792,3.17,2.598c6.691,4.754,14.268,7.489,22.5,8.12c5.713,0.351,11.509-0.391,16.883-2.232   c-0.485-0.202-0.971-0.413-1.453-0.628l-4.502,0.235c-0.26,0.088-0.538,0.133-0.818,0.133l-0.407-0.033   c-1.978-0.332-3.259-1.634-3.441-3.48c-0.107-1.346,0.325-2.244,0.748-2.79l-6.003-1.701c-2.179-0.721-3.229-2.577-2.672-4.637   c0.4-1.736,1.757-2.9,3.461-2.945c-0.068-0.22-0.133-0.44-0.195-0.66l-4.097-2.167c-1.999-1.414-2.592-3.333-1.731-5.23   c0.095-0.202,0.198-0.365,0.318-0.521c0.938-1.213,2.361-1.776,3.79-1.48c-0.005-0.046-0.01-0.088-0.015-0.133l-0.003-0.058   l-4.461-4.935c-0.813-1.006-1.131-2.005-0.986-3.022c0.093-0.641,0.413-1.557,1.406-2.34c0.554-0.658,1.542-1.121,2.558-1.068   l-1.071-1.524c-1.118-1.674-0.926-3.575,0.485-4.986c0.158-0.153,0.323-0.28,0.496-0.386c1.597-0.961,3.535-0.741,5.024,0.588   c0.025,0.022,0.05,0.048,0.075,0.07l-0.721-1.619c-0.646-1.166-0.423-2.282-0.23-2.833c0.24-0.675,0.813-1.601,2.189-2.177   c0.473-0.215,1.036-0.34,1.587-0.34c0.367,0,1.03,0.064,1.724,0.445l-0.37-1.176c-0.421-2.348,0.605-4.124,2.638-4.8   c0.53-0.128,0.82-0.165,1.126-0.165c0.988,0,1.871,0.37,2.542,1.033l-0.53-1.981c-0.541-2.167,0.53-4.063,2.597-4.632   c0.546-0.105,0.794-0.123,1.026-0.123c1.691,0,3.061,0.977,3.661,2.61l0.245,0.881c0.197-0.17,0.396-0.346,0.596-0.516   l-0.869-5.377c-0.212-2.455,1.164-4.172,3.408-4.362c0.035-0.005,0.358-0.02,0.411-0.02c0.94,0,1.791,0.3,2.467,0.841l-0.075-0.418   c-0.045-2.367,1.094-3.959,2.976-4.416c-0.421-0.341-0.846-0.666-1.274-0.981c-8.825-6.445-18.829-9.253-29.581-8.317   c-10.38,1.036-19.346,5.395-26.646,12.951c-0.354,2.522-0.178,5.005,0.515,7.402l0.769-1.126c0.981-1.557,2.354-1.794,3.083-1.794   c0.763,0,1.501,0.245,2.199,0.73c1.574,1.048,2.095,2.97,1.304,4.882l-1.318,2.026c1.259-0.49,2.145-0.265,3.095,0.208   c1.952,1.329,2.543,3.266,1.697,5.147l-1.949,2.952c0.758-0.48,1.479-0.575,1.934-0.575c0.69,0,1.366,0.195,2.005,0.58   c1.809,1.547,2.247,3.368,1.373,5.135l-4.283,6.459c2.239-0.988,3.948-0.23,4.984,1.493c1.076,1.972,0.62,4.004-1.136,5.225   l-4.612,2.453c-0.048,0.583-0.104,1.168-0.17,1.751l1.313-0.498c2.029-0.743,3.966,0.123,4.837,2.034   c0.769,2.258-0.022,4.214-1.969,5.1l-5.993,2.178c-0.146,0.05-0.293,0.1-0.443,0.14c-0.263,0.613-0.553,1.222-0.868,1.821   c1.549,0.746,2.337,2.107,2.189,3.764c-0.365,2.067-1.669,3.343-3.498,3.523l-0.333,0.015l-0.43-0.02L21.372,81.516z    M74.175,88.082l-0.554-0.141c-2.284-0.58-4.506-1.281-6.601-2.081L65.552,85.3l2.317-3.626c0.26-0.799,0.092-1.437-0.503-1.902   c-0.559-0.25-1.031-0.598-1.853,0.578l-2.174,3.666l-1.106-0.671c-1.101-0.668-2.109-1.443-2.995-2.31l-1.151-1.121l5.516-3.57   c0.208-0.147,0.958-0.673,0.285-1.896c-0.538-0.73-1.129-0.559-1.736-0.173l-5.735,3.724l-0.698-1.066   c-0.684-1.041-1.236-2.151-1.646-3.306l-0.48-1.344l5.104-1.226c0.701-0.192,1.028-0.65,0.964-1.392   c-0.338-0.87-0.746-1.266-1.534-1.096l-5.183,1.196l-0.228-1.339c-0.19-1.126-0.353-2.25-0.485-3.351l-0.208-1.722l5.663,1.026   c0.373-0.11,1.006-0.376,1.171-1.121c0.003-0.831-0.345-1.302-1.121-1.531l-5.732-1.084l0.095-1.148   c0.053-0.641,0.146-1.271,0.28-1.882l0.306-1.384l6.173,2.024c0.599-0.133,1.036-0.471,1.304-1.001   c0.067-0.841-0.266-1.371-1.108-1.781l-5.49-1.547l0.729-1.396c0.162-0.308,0.328-0.61,0.511-0.903l0.612-1l6.842,3.42   c0.06,0.03,0.183,0.093,0.641,0.093c0.438-0.053,0.83-0.253,1.171-0.591c0.2-0.873-0.01-1.469-0.639-1.818l-6.418-3.309   l1.051-1.229c0.506-0.593,1.036-1.158,1.587-1.689l0.693-0.675l6.521,3.618c0.543-0.136,0.936-0.333,1.206-0.604   c0.215-0.785,0.05-1.313-0.57-1.819l-5.287-3.018l1.453-1.173c0.431-0.349,0.879-0.684,1.364-1.031   c0.117-0.143,0.413-0.403,0.723-0.639l0.581-0.44l5.74,2.317h0.5c0.536,0,0.929-0.23,1.199-0.7c0.149-0.45,0.265-1.249-0.641-1.579   l-4.564-1.927l4.409-4.001l7.604,2.002c0.42,0,0.938-0.113,1.229-0.991c0.173-0.716-0.12-1.251-0.929-1.544l-5.765-1.589   l1.618-1.559c0.278-0.269,0.565-0.538,0.861-0.804L78,28.976l0.551,0.043l4.869,0.516c0.733-0.073,1.126-0.4,1.262-1.006   c-0.088-1.076-0.565-1.352-0.951-1.396l-3.268-0.511l4.734-4.619l0.87,1.166c5.671,7.574,8.673,16.28,8.924,25.868   c0.197,10.3-2.79,19.751-8.881,28.101c-3.233,4.134-7.079,7.7-11.463,10.63L74.175,88.082z M69.418,84.008   c1.384,0.48,2.817,0.921,4.281,1.307c3.958-2.715,7.444-5.983,10.366-9.722c5.729-7.854,8.551-16.782,8.363-26.496   c-0.186-7.111-1.977-13.71-5.335-19.678c-0.468,1.512-1.701,2.492-3.358,2.657c-0.035,0.005-0.125,0.008-0.218,0.01   c0.799,0.916,1.079,2.14,0.748,3.469c-0.593,1.813-1.961,2.842-3.688,2.842h-0.301c-0.228,0-0.455-0.029-0.676-0.09l-5.95-1.631   l-0.396,0.36l0.811,0.34c1.93,0.706,2.83,2.675,2.138,4.77c-0.061,0.175-0.136,0.343-0.226,0.493   c-0.713,1.241-1.959,1.964-3.408,1.964h-0.5c-0.33,0-0.653-0.062-0.959-0.186l-4.346-1.756c0,0-0.003,0.005-0.006,0.005   l2.183,1.256c1.962,1.576,1.935,3.358,1.597,4.597c-0.123,0.433-0.351,0.823-0.661,1.136c-0.607,0.608-1.389,1.023-2.387,1.276   c-0.416,0.112-0.901,0.107-1.342-0.022c0.538,0.896,0.688,2.012,0.411,3.218c-0.11,0.468-0.346,0.891-0.676,1.227   c-0.746,0.745-1.642,1.19-2.67,1.336l-0.32,0.013c-0.061,0-0.12,0-0.178-0.003c0.018,0.245,0.018,0.501-0.005,0.761   c-0.025,0.33-0.115,0.65-0.269,0.951c-0.457,0.911-1.178,1.606-2.079,2.024c0.69,0.733,1.057,1.701,1.057,2.825   c0,0.2-0.023,0.396-0.07,0.583c-0.223,0.998-0.804,1.821-1.637,2.372c0.813,0.312,1.744,1.003,2.332,2.524   c0.088,0.216,0.146,0.458,0.165,0.706c0.07,0.798-0.075,1.536-0.402,2.172c1.584-0.525,3.248,0.058,4.246,1.474   c0.791,1.419,0.841,2.83,0.242,3.971c0.771-0.074,1.43,0.062,2.13,0.381c0.18,0.08,0.351,0.186,0.506,0.303   c1.464,1.141,1.972,2.907,1.366,4.734c-0.058,0.183-0.148,0.373-0.263,0.558L69.418,84.008z M15.141,78.621l-0.745-0.969   C8.482,69.961,5.324,61.15,5.01,51.464c-0.178-9.201,2.139-17.681,6.889-25.223l1.736-2.758l0.605,3.203   c0.36,1.901,0.929,3.809,1.687,5.66l0.886,2.167l-4.925-0.901c-0.305,0.011-1.093,0.011-1.391,1.199   c-0.043,0.25-0.186,1.021,1.293,1.464l6.438,0.945l0.308,0.541c0.349,0.605,0.693,1.241,1.031,1.896l1.121,2.187l-5.132-0.7   c-0.788-0.125-1.251-0.15-1.566,1.028c-0.107,0.73,0.202,1.238,0.95,1.374l6.694,1.096l0.258,0.7   c0.305,0.821,0.567,1.654,0.795,2.495l0.514,1.919l-4.395-0.726c-0.863,0.005-1.266,0.351-1.398,1.121   c-0.061,0.711,0.298,1.196,1.134,1.424l5.187,0.873l0.073,1.007c0.05,0.71,0.095,1.421,0.135,2.121l0.103,1.777l-4.444-1.212   c-0.127-0.029-0.277-0.05-0.418-0.05c-0.207,0-0.838,0-1.176,1.023c-0.062,0.238-0.28,1.039,1.124,1.574l4.727,1.344l-0.053,1.019   c-0.067,1.311-0.218,2.607-0.445,3.854l-0.29,1.571l-3.436-1.454c-0.12-0.037-0.325-0.072-0.514-0.072   c-0.47,0-0.798,0.22-0.968,0.65c-0.15,0.33-0.528,1.161,0.698,1.771l3.61,1.702l-0.478,1.133c-0.296,0.698-0.628,1.384-0.996,2.062   l-1.289,2.367l-1.914-4.662c-0.218-0.428-0.585-0.681-1.083-0.681c-0.108,0-0.253,0.01-0.604,0.115   c-0.671,0.29-0.905,0.86-0.573,1.656l2.314,5.532l-0.74,0.604c-0.312,0.258-0.631,0.498-0.948,0.721L15.141,78.621z M9.378,37.866   c-1.293,4.289-1.898,8.809-1.807,13.53c0.223,6.903,1.984,13.345,5.248,19.215c-0.078-1.552,0.801-2.933,2.409-3.608   c0.085-0.027,0.165-0.053,0.243-0.075c-0.141-0.738-0.043-1.536,0.317-2.332c0.695-1.752,2.71-2.643,4.744-1.967l0.541,0.228   c0.037-0.308,0.069-0.613,0.095-0.923l-2.853-0.816c-2.307-0.87-3.328-2.672-2.768-4.736c0.381-1.158,1.071-2.002,1.959-2.46   c-1.842-0.678-2.808-2.202-2.64-4.099c0.295-1.727,1.339-2.875,2.82-3.228l-3.186-0.523c-2.132-0.391-3.363-2.209-3.018-4.427   c0.317-1.203,0.916-2.074,1.731-2.582l-1.981-0.295C10.499,38.552,9.876,38.247,9.378,37.866z M12.104,31.07   c0.05,0,0.09,0.005,0.107,0.005l0.553,0.101c-0.095-0.285-0.185-0.571-0.271-0.858C12.361,30.564,12.23,30.817,12.104,31.07z"/>
</g>
</svg>