<svg xmlns:dc="http://purl.org/dc/elements/1.1/" xmlns:cc="http://creativecommons.org/ns#" xmlns:rdf="http://www.w3.org/1999/02/22-rdf-syntax-ns#" xmlns:svg="http://www.w3.org/2000/svg" xmlns="http://www.w3.org/2000/svg" xmlns:sodipodi="http://sodipodi.sourceforge.net/DTD/sodipodi-0.dtd" xmlns:inkscape="http://www.inkscape.org/namespaces/inkscape" width="100" height="100" viewBox="0 0 80 80" version="1.1" id="svg2" inkscape:version="0.48.2 r9819" sodipodi:docname="tennis2 serve.svg">
  <metadata id="metadata14">
    <rdf:RDF>
      <cc:Work rdf:about="">
        <dc:format>image/svg+xml</dc:format>
        <dc:type rdf:resource="http://purl.org/dc/dcmitype/StillImage"/>
      </cc:Work>
    </rdf:RDF>
  </metadata>
  <defs id="defs12"/>
  <sodipodi:namedview pagecolor="#ffffff" bordercolor="#666666" borderopacity="1" objecttolerance="10" gridtolerance="10" guidetolerance="10" inkscape:pageopacity="0" inkscape:pageshadow="2" inkscape:window-width="1366" inkscape:window-height="706" id="namedview10" showgrid="false" inkscape:zoom="5.17" inkscape:cx="50" inkscape:cy="50" inkscape:window-x="-8" inkscape:window-y="-8" inkscape:window-maximized="1" inkscape:current-layer="svg2"/>
  <path style="fill:#000000;stroke:none" d="m 25.022553,0.88560727 c -0.10299,-0.004 -0.20798,0.009 -0.31082,0.0411 -0.43881,0.12798003 -0.82276,0.47537003 -0.95074,0.93246003 -0.10971,0.7679097 0.60335,1.5358097 1.38954,1.4261097 0.38395,-0.16455 0.71306,-0.47537 0.91418,-0.82276 0.33596,-0.7039097 -0.32125,-1.54844973 -1.04216,-1.57694973 z M 23.212483,9.264017 c -0.23768,0.95075 -0.20112,1.95634 0,2.92536 0.14627,0.87761 1.00559,1.35298 1.29813,2.17574 0.42052,1.09701 1.22499,2.01118 1.64551,3.10819 0.73134,1.81007 1.81007,3.4373 2.68768,5.17423 0.45709,0.96903 1.31641,1.6638 1.7735,2.61454 0.96902,1.95634 2.61454,3.60185 3.01677,5.81416 -0.0183,1.13357 -0.69477,2.15745 -0.96902,3.25446 -0.60336,2.04775 -1.81007,3.8761 -2.52312,5.88728 -0.93246,2.52313 -1.97462,5.00968 -2.61454,7.62422 -0.74963,2.12089 -1.64552,4.16864 -2.21231,6.32609 -0.38395,2.57798 -0.6582,5.17423 -0.80447,7.78877 -0.14627,1.35298 0.4388,2.63283 0.78619,3.91267 0.56679,1.97462 1.81007,3.63842 2.48655,5.55818 0.29254,0.84104 0.82276,1.64552 0.80448,2.55969 -0.34739,1.42612 -1.4444,2.63283 -2.79738,3.19961 -0.4388,0.23769 -1.11529,0.56679 -1.06044,1.15186 0.80447,0.82276 2.08432,1.15187 3.18133,0.76791 1.57238,-0.5485 3.25446,-0.56679 4.89998,-0.80447 -0.0366,-1.27985 -0.38396,-2.52312 -0.71306,-3.74812 -1.86492,-2.74252 -1.20671,-6.30781 -2.59626,-9.25145 -0.27425,-0.69477 -0.78619,-1.31641 -0.89589,-2.06603 0.0914,-2.24887 1.09701,-4.33319 2.21231,-6.25296 0.4388,-0.91417 1.57238,-0.51194 2.37685,-0.47537 0.71306,0.12798 1.82835,-0.0366 2.04775,0.89589 0.53022,1.6638 1.07873,3.34588 1.81007,4.93655 0.71305,1.82835 2.322,3.05334 3.7664,4.27833 1.49924,1.17015 2.83394,2.52313 4.29662,3.74812 0.85932,0.82276 1.82835,1.75522 1.91977,3.01678 0.0731,1.02387 0.25597,2.06603 -0.0549,3.05334 -0.16456,0.67649 -0.53022,1.3347 -0.45709,2.04775 0.29253,0.49366 1.02387,0.27426 1.51753,0.34739 0.80447,-0.0731 1.91977,0.0366 2.41342,-0.76791 0.18284,-0.89589 0.0914,-1.82835 0.36567,-2.72424 0.31082,-0.95074 -0.36567,-1.82835 -0.67649,-2.70596 -0.34739,-0.95074 -1.53581,-1.15186 -1.97462,-2.02946 -1.40783,-2.63283 -2.52312,-5.81416 -5.35706,-7.27684 -0.62164,-0.3291 -0.84104,-1.04216 -1.07873,-1.66379 -0.38395,-1.09701 -0.98731,-2.15746 -0.89589,-3.36417 0.0914,-1.8832 -0.12798,-3.78468 -0.31082,-5.6496 -0.1097,-1.13357 -0.84104,-2.06603 -1.06044,-3.16304 -0.20112,-0.95074 -0.23769,-1.95634 0.18283,-2.87051 0.67649,-1.60895 1.29813,-3.25446 1.82835,-4.93655 0.54851,-1.35297 1.1153,-2.81565 2.32201,-3.71155 0.71305,-0.56678 1.20671,0.41595 2.06603,0.30625 0.0914,0.2194 0.63993,-0.56221 0.73134,-0.3611 1.29813,-0.31082 2.39514,0.73134 3.69327,0.73134 1.38955,0 2.85222,0.18284 4.22349,-0.18283 1.71865,-2.30372 2.24887,-5.24736 3.29103,-7.88019 0.34738,-0.93246 1.06044,-1.75521 1.17014,-2.77909 -0.25597,-0.82276 -1.09701,-1.26156 -1.81007,-1.6638 -0.71305,-0.4388 -1.62723,-0.16455 -2.35857,-0.56679 -1.59066,-0.74962 -3.19961,-1.60894 -4.33319,-2.98021 -0.73134,-0.85932 -1.17014,-1.97461 -2.13916,-2.61454 -2.12089,-1.49924 -4.62573,-2.7608 -7.29512,-2.55969 -1.3347,0.0183 -2.44999,1.35298 -2.41342,2.65111 0.58507,1.00559 1.62723,1.70037 2.65111,2.23059 1.62723,0.89589 3.41901,1.60895 5.30221,1.60895 1.17014,0.16455 2.30372,0.51193 3.47386,0.73134 2.19402,0.38395 3.89439,1.93805 5.72274,3.07162 0.31082,1.13358 0.34738,2.44999 -0.27425,3.49215 -0.73134,1.31641 -1.4444,2.65111 -2.30372,3.89439 -0.27426,0.36567 -0.58508,0.8776 -1.1153,0.74962 -1.5541,-0.23769 -3.05334,-0.73134 -4.55259,-1.15186 -1.31641,-0.36567 -2.41342,-1.24328 -3.71155,-1.60895 -0.63992,-0.0914 -0.89589,-0.95074 -0.4388,-1.38955 0.4388,-0.47537 0.89589,-1.11529 1.53581,-1.29812 0.73134,0.34738 1.11529,1.24327 1.91977,1.59066 0.0731,-1.09701 -1.13358,-1.9929 -0.58507,-3.07163 0.36567,-1.13357 0.71305,-2.4317 0.14626,-3.52871 -0.89589,-1.42611 -2.70595,-2.01119 -4.29662,-1.91977 -1.46268,0.42052 -1.75521,1.90149 -2.99849,2.59626 -0.23769,0.73134 -0.0183,2.13917 -0.80447,2.55969 -0.45709,0.0183 -0.78619,-0.36567 -1.09701,-0.62164 -1.95634,-1.82835 -4.18692,-3.52872 -5.33879,-5.99699 -0.56678,-1.26156 -1.33469,-2.41342 -2.24887,-3.41901 -0.8776,-0.96903 -1.55409,-2.08432 -2.4317,-3.05335 -0.80447,-0.91417 -0.78619,-2.2123 -1.3347,-3.23617 -0.63992,-1.18843 -1.48096,-2.35858 -2.63282,-3.03507 z" id="path4" inkscape:connector-curvature="0"/>
</svg>