<?xml version="1.0" encoding="utf-8"?>
<!-- Generator: Adobe Illustrator 14.0.0, SVG Export Plug-In . SVG Version: 6.00 Build 43363)  -->
<!DOCTYPE svg PUBLIC "-//W3C//DTD SVG 1.0//EN" "http://www.w3.org/TR/2001/REC-SVG-20010904/DTD/svg10.dtd">
<svg version="1.0" id="Layer_1" xmlns="http://www.w3.org/2000/svg" xmlns:xlink="http://www.w3.org/1999/xlink" x="0px" y="0px"
	 width="100px" height="99.996px" viewBox="0 0 100 99.996" enable-background="new 0 0 100 99.996" xml:space="preserve">
<path d="M46.56,0.1C18.011,1.9-3.38,28.607,0.443,56.788c3.504,25.831,27.035,44.745,52.951,43.109
	C79.463,98.253,99.766,75.856,100,49.999C99.742,21.334,75.249-1.711,46.56,0.1z M85.245,75.593
	c-0.676-0.154-1.428-0.086-2.202,0.34c-0.698,0.384-1.396,0.769-2.096,1.152c-0.21-0.432-0.424-0.862-0.625-1.299
	c0.664-0.263,1.327-0.525,1.991-0.788c1.624-0.645,2.741-2.121,2.239-3.944c-0.425-1.548-2.316-2.885-3.943-2.239
	c-0.886,0.351-1.772,0.702-2.658,1.053c-0.162-0.471-0.317-0.943-0.469-1.418c0.807-0.19,1.612-0.38,2.418-0.57
	c4.023-0.949,2.316-7.131-1.704-6.183c-0.782,0.185-1.563,0.369-2.346,0.554c-0.094-0.448-0.177-0.899-0.261-1.351
	c0.724-0.091,1.448-0.183,2.172-0.274c1.733-0.22,3.207-1.293,3.207-3.206c0-1.582-1.469-3.426-3.207-3.206
	c-1.005,0.127-2.01,0.254-3.015,0.381c-0.039-0.485-0.094-0.969-0.122-1.455c0.891,0,1.781,0,2.672,0c4.135,0,4.135-6.412,0-6.412
	c-0.9,0-1.801,0-2.701,0c0.023-0.487,0.07-0.974,0.105-1.461c0.865,0.109,1.73,0.219,2.596,0.328
	c1.739,0.221,3.206-1.625,3.206-3.206c0-1.913-1.472-2.986-3.206-3.206c-0.602-0.076-1.203-0.152-1.805-0.228
	c0.082-0.453,0.168-0.906,0.261-1.359c0.848,0.2,1.695,0.4,2.544,0.601c4.021,0.949,5.728-5.234,1.704-6.184
	c-0.882-0.208-1.764-0.416-2.646-0.624c0.153-0.482,0.316-0.959,0.48-1.435c0.925,0.366,1.849,0.732,2.773,1.098
	c1.627,0.644,3.519-0.692,3.943-2.24c0.502-1.822-0.615-3.301-2.239-3.943c-0.7-0.277-1.4-0.555-2.1-0.832
	c0.204-0.44,0.419-0.875,0.633-1.31c0.772,0.425,1.546,0.851,2.318,1.275c0.7,0.385,1.385,0.484,2.009,0.387
	c5.274,7.354,8.33,16.328,8.414,25.611C93.503,59.275,90.55,68.218,85.245,75.593z M14.038,25.275c0.208-0.31,0.425-0.61,0.64-0.913
	c0.653,0.126,1.373,0.045,2.113-0.362c0.772-0.425,1.545-0.85,2.317-1.275c0.214,0.435,0.429,0.87,0.633,1.31
	c-0.7,0.277-1.399,0.554-2.099,0.832c-1.624,0.643-2.741,2.121-2.239,3.943c0.425,1.548,2.316,2.884,3.943,2.24
	c0.924-0.366,1.848-0.732,2.772-1.098c0.164,0.476,0.327,0.953,0.48,1.435c-0.882,0.208-1.763,0.416-2.645,0.624
	c-4.023,0.949-2.316,7.133,1.704,6.184c0.848-0.2,1.695-0.4,2.543-0.6c0.093,0.452,0.179,0.905,0.261,1.358
	c-0.601,0.076-1.202,0.152-1.804,0.228c-1.734,0.22-3.206,1.293-3.206,3.206c0,1.581,1.467,3.427,3.206,3.206
	c0.865-0.109,1.73-0.219,2.595-0.328c0.035,0.487,0.082,0.974,0.105,1.461c-0.9,0-1.8,0-2.701,0c-4.136,0-4.136,6.412,0,6.412
	c0.891,0,1.781,0,2.672,0c-0.028,0.487-0.083,0.97-0.123,1.456c-1.005-0.128-2.01-0.255-3.015-0.382
	c-1.737-0.22-3.206,1.624-3.206,3.206c0,1.913,1.474,2.986,3.206,3.206c0.725,0.092,1.448,0.184,2.173,0.274
	c-0.084,0.451-0.167,0.902-0.261,1.351c-0.782-0.185-1.563-0.369-2.346-0.554c-4.021-0.948-5.729,5.233-1.705,6.183
	c0.806,0.19,1.612,0.38,2.418,0.57c-0.151,0.475-0.306,0.947-0.468,1.418c-0.886-0.351-1.772-0.702-2.658-1.053
	c-1.627-0.646-3.519,0.691-3.943,2.239c-0.502,1.823,0.615,3.3,2.239,3.944c0.663,0.263,1.327,0.525,1.99,0.788
	c-0.201,0.437-0.414,0.867-0.625,1.299c-0.698-0.384-1.396-0.769-2.095-1.152c-0.778-0.428-1.533-0.494-2.211-0.338
	c-2.422-3.333-4.391-6.998-5.797-10.879C4.125,51.529,6.294,36.845,14.038,25.275z M36.81,91.588
	c-3.279-0.996-6.397-2.413-9.304-4.174c1.914-1.106,2.688-4.176,0.182-5.554c-1.007-0.554-2.015-1.108-3.021-1.662
	c0.329-0.675,0.653-1.352,0.961-2.037c1.033,0.409,2.066,0.818,3.099,1.228c1.627,0.645,3.519-0.692,3.944-2.239
	c0.501-1.824-0.616-3.301-2.24-3.944c-0.821-0.325-1.643-0.65-2.464-0.976c0.264-0.765,0.516-1.533,0.753-2.307
	c0.948,0.224,1.896,0.447,2.844,0.671c4.021,0.95,5.729-5.233,1.704-6.183c-0.982-0.231-1.965-0.464-2.948-0.695
	c0.141-0.669,0.271-1.34,0.391-2.014c1.106,0.141,2.213,0.28,3.319,0.42c1.738,0.219,3.206-1.625,3.206-3.206
	c0-1.913-1.473-2.987-3.206-3.206c-0.827-0.104-1.654-0.209-2.481-0.313c0.064-0.751,0.114-1.504,0.153-2.258
	c0.963,0,1.925,0,2.887,0c4.136,0,4.136-6.412,0-6.412c-0.947,0-1.895,0-2.841,0c-0.004-0.075-0.003-0.15-0.006-0.226
	c-0.031-0.683-0.077-1.362-0.128-2.04c0.991-0.125,1.983-0.251,2.975-0.376c1.733-0.22,3.206-1.292,3.206-3.206
	c0-1.582-1.467-3.426-3.206-3.206c-1.255,0.159-2.51,0.317-3.765,0.476c-0.118-0.679-0.246-1.354-0.385-2.026
	c0.943-0.223,1.887-0.445,2.829-0.668c4.024-0.95,2.317-7.133-1.704-6.183c-0.906,0.213-1.812,0.428-2.718,0.641
	c-0.241-0.78-0.497-1.554-0.766-2.322c0.783-0.311,1.567-0.621,2.351-0.931c1.624-0.644,2.741-2.12,2.24-3.943
	c-0.426-1.547-2.317-2.885-3.944-2.24c-1.011,0.4-2.021,0.801-3.032,1.201c-0.315-0.686-0.642-1.365-0.98-2.038
	c0.879-0.484,1.759-0.968,2.638-1.452c2.435-1.339,1.768-4.271-0.029-5.45c10.575-6.295,23.744-7.998,35.82-4.329
	c3.4,1.033,6.593,2.488,9.535,4.293c-1.834,1.157-2.535,4.134-0.078,5.486c0.88,0.484,1.759,0.968,2.638,1.452
	c-0.337,0.673-0.664,1.352-0.979,2.037c-1.01-0.4-2.021-0.8-3.031-1.201c-1.627-0.645-3.52,0.693-3.945,2.24
	c-0.5,1.823,0.617,3.3,2.24,3.943c0.783,0.31,1.567,0.621,2.351,0.931c-0.269,0.768-0.524,1.542-0.766,2.322
	c-0.905-0.214-1.812-0.428-2.717-0.641c-4.022-0.95-5.729,5.232-1.704,6.183c0.942,0.223,1.886,0.445,2.828,0.667
	c-0.138,0.672-0.267,1.347-0.384,2.026c-1.255-0.159-2.51-0.317-3.765-0.476c-1.739-0.22-3.207,1.624-3.207,3.206
	c0,1.914,1.474,2.986,3.207,3.206c0.991,0.125,1.983,0.251,2.975,0.376c-0.051,0.678-0.098,1.357-0.128,2.04
	c-0.003,0.075-0.003,0.15-0.006,0.226c-0.946,0-1.894,0-2.841,0c-4.136,0-4.136,6.412,0,6.412c0.962,0,1.924,0,2.886,0
	c0.04,0.754,0.089,1.507,0.153,2.258c-0.827,0.104-1.654,0.209-2.481,0.313c-1.733,0.219-3.206,1.293-3.206,3.206
	c0,1.581,1.469,3.425,3.206,3.206c1.106-0.14,2.213-0.279,3.319-0.42c0.12,0.674,0.25,1.345,0.391,2.014
	c-0.982,0.231-1.965,0.464-2.947,0.695c-4.024,0.949-2.318,7.133,1.704,6.183c0.947-0.224,1.896-0.447,2.843-0.671
	c0.238,0.773,0.49,1.542,0.754,2.307c-0.822,0.325-1.644,0.65-2.465,0.976c-1.623,0.644-2.74,2.12-2.24,3.944
	c0.426,1.547,2.318,2.884,3.945,2.239c1.033-0.409,2.066-0.818,3.099-1.228c0.308,0.686,0.633,1.362,0.962,2.037
	c-1.008,0.554-2.015,1.108-3.021,1.662c-2.491,1.37-1.741,4.415,0.147,5.537C61.76,93.771,48.758,95.218,36.81,91.588z"/>
</svg>
