<svg xmlns="http://www.w3.org/2000/svg" xmlns:xlink="http://www.w3.org/1999/xlink" version="1.0" x="0px" y="0px" width="99.848px" height="91.528px" viewBox="0 0 99.848 91.528" overflow="visible" enable-background="new 0 0 99.848 91.528" xml:space="preserve">
    <path d="M49.925,15.415c4.261,0,7.703-3.451,7.703-7.706C57.628,3.45,54.186,0,49.925,0c-4.263,0-7.705,3.45-7.705,7.709 C42.22,11.964,45.662,15.415,49.925,15.415z"/>
    <path d="M4.438,36.095H1.683C0.753,36.095,0,36.849,0,37.779v20.765c0,0.931,0.753,1.684,1.683,1.684h2.755 c0.93,0,1.684-0.753,1.684-1.684V37.779C6.122,36.849,5.368,36.095,4.438,36.095z"/>
    <path d="M98.165,36.095h-2.756c-0.929,0-1.683,0.754-1.683,1.684v20.765c0,0.931,0.754,1.684,1.683,1.684h2.756 c0.932,0,1.683-0.753,1.683-1.684V37.779C99.848,36.849,99.097,36.095,98.165,36.095z"/>
    <path d="M88.712,32.073h-3.676c-1.237,0-2.244,1.005-2.244,2.245v11.528H70.079l-0.194-21.132 c0-4.082-3.314-7.393-7.396-7.393H36.977c-4.083,0-7.392,3.311-7.392,7.393l0.118,21.132H17.056V34.318 c0-1.24-1.005-2.245-2.244-2.245h-3.673c-1.24,0-2.245,1.005-2.245,2.245v27.689c0,1.238,1.005,2.243,2.245,2.243h3.673 c1.239,0,2.244-1.005,2.244-2.243V50.479h12.858c0.475,1.489,1.855,2.575,3.502,2.575c1.652,0,3.032-1.086,3.507-2.575h2.056 c-0.585,12.251-1.721,35.656-1.721,35.656c-0.2,2.774,1.899,5.186,4.675,5.381c2.779,0.189,5.184-1.896,5.376-4.679 l1.714-33.082c0.306,0.02,1.635,0.029,1.991-0.014l2.27,33.096c0.187,2.783,2.601,4.868,5.383,4.679 c2.77-0.195,4.873-2.606,4.677-5.381c0,0-1.546-23.405-2.347-35.656h1.916c0.475,1.489,1.853,2.575,3.503,2.575 c1.646,0,3.028-1.086,3.506-2.575h12.87v11.528c0,1.238,1.007,2.243,2.244,2.243h3.676c1.24,0,2.242-1.005,2.242-2.243V34.318 C90.954,33.078,89.952,32.073,88.712,32.073z M37.128,45.846V30.098c0-0.604,0.491-1.095,1.094-1.095 c0.604,0,1.097,0.491,1.097,1.095v13.095c0,0.065-0.045,1.043-0.121,2.654H37.128z M60.53,43.192V30.098 c0-0.604,0.494-1.095,1.097-1.095c0.604,0,1.094,0.491,1.094,1.095v15.749h-2.023C60.592,44.226,60.53,43.246,60.53,43.192z"/>
</svg>