<svg xmlns="http://www.w3.org/2000/svg" xmlns:xlink="http://www.w3.org/1999/xlink" version="1.1" id="Layer_1" x="0px" y="0px" width="100px" height="100px" viewBox="0 0 100 100" enable-background="new 0 0 100 100" xml:space="preserve">
<path d="M46.319,62.432c-0.343,2.142-2.733,3.539-5.337,3.121l0,0c-2.605-0.418-4.437-2.493-4.092-4.637l3.687-22.952  c0.344-2.142,2.733-3.539,5.338-3.12l0,0c2.604,0.418,4.436,2.494,4.091,4.635L46.319,62.432z"/>
<path d="M63.88,83.899c-0.582,2.128-2.637,3.42-4.592,2.886l0,0c-1.954-0.534-3.068-2.692-2.487-4.82l4.557-17.633  c0.582-2.128,2.639-3.421,4.593-2.886l0,0c1.955,0.532,3.067,2.692,2.486,4.82L63.88,83.899z"/>
<path d="M43.986,79.919c0,2.206-1.642,3.995-3.668,3.995l0,0c-2.026,0-3.669-1.789-3.669-3.995V62.633  c0-2.206,1.643-3.994,3.669-3.994l0,0c2.026,0,3.668,1.788,3.668,3.994V79.919z"/>
<path d="M31.526,95.701c-1.451,1.663-3.865,1.931-5.391,0.598l0,0c-1.527-1.331-1.588-3.759-0.138-5.422l11.365-13.023  c1.451-1.663,3.864-1.93,5.391-0.598l0,0c1.527,1.332,1.588,3.759,0.137,5.422L31.526,95.701z"/>
<path d="M65.06,61.113c2.155,0.472,3.525,2.579,3.059,4.705l0,0c-0.465,2.125-2.592,3.467-4.747,2.994l-17.879-3.779  c-2.156-0.472-3.525-2.579-3.059-4.704l0,0c0.466-2.126,2.59-3.468,4.746-2.995L65.06,61.113z"/>
<path d="M67.178,19.952c-0.025-1.773-1.367-3.191-2.997-3.167l0,0c-1.628,0.025-2.928,1.482-2.9,3.256l0.017,14.641  c0.028,1.773,1.37,3.191,2.999,3.166l0,0c1.628-0.024,2.928-1.481,2.901-3.256L67.178,19.952z"/>
<path d="M64.088,38.005c1.847-0.184,3.157-1.781,2.928-3.565l0,0c-0.229-1.784-1.91-3.082-3.755-2.896l-19.207,2.793  c-1.845,0.184-3.155,1.782-2.926,3.566l0,0c0.229,1.784,1.91,3.08,3.755,2.895L64.088,38.005z"/>
<circle cx="46.02" cy="27.778" r="5.468"/>
<circle cx="69.192" cy="8.799" r="6.247"/>
</svg>