<svg xmlns="http://www.w3.org/2000/svg" xmlns:xlink="http://www.w3.org/1999/xlink" version="1.1" id="Calque_1" x="0px" y="0px" width="100px" height="99.2537313433px" viewBox="0 0 268.811 266.62" enable-background="new 0 0 268.811 266.62" xml:space="preserve">
<path d="M134.405,0C60.3,0,0,59.794,0,133.3c0,73.515,60.3,133.32,134.405,133.32s134.405-59.805,134.405-133.32  C268.811,59.794,208.511,0,134.405,0z M175.729,19.176c19.396,7.227,36.41,19.271,49.531,34.811  c9.217,16.129,11.063,24.318,10.502,28.393l-37.153,13.578l-39.771-25.241c-2.752-14.435-9.255-37.8-11.321-45.151  C157.581,19.328,173.92,19.176,175.729,19.176z M138.795,25.612l-0.066,0.019c0.085,0.286,8.159,28.393,11.511,45.17l-35.915,29.479  L56.777,91.71c0,0-3.561-15.311-3.504-27.631l0.009,0.019c0.219-0.305,20.271-32.449,53.777-42.875  C107.06,21.223,126.998,22.146,138.795,25.612z M81.476,24.203c-17.786,12.026-30.297,28.308-34.03,33.516  c-4.808,2.028-9.826,6.189-14.016,10.255C45.065,49.283,61.69,34.086,81.476,24.203z M15.435,130.577  c0-2.038,0.209-4.037,0.314-6.075c3.247,5.675,7.979,9.931,11.426,12.54c2.895,10.998,11.13,39.066,24.66,61.328  c-0.399,8.864,0.429,14.91,1.438,18.967C30.05,195.608,15.435,164.807,15.435,130.577z M59.319,194.429  c-13.939-22.747-22.318-53.055-24.489-61.595c8.702-18.539,19.976-32.554,19.976-32.554l56.339,8.208  c6.398,18.453,15.349,37.648,19.662,46.617c-6.265,9.359-23.87,35.4-34.268,48.197C86.56,203.445,69.088,197.875,59.319,194.429z   M134.396,249.538c-10.331,0-20.31-1.447-29.878-3.941c9.94-0.305,15.806-2.666,19.147-4.932c3.009,0.646,11.702,2.304,23.309,2.304  c11.835,0,26.65-1.8,41.313-8.093c0.781,0.266,1.553,0.409,2.333,0.504C173.872,244.406,154.715,249.538,134.396,249.538z   M187.497,226.03c-29.936,14.102-62.604,6.256-62.946,6.17l-2.438-1.248c-8.874-8.141-16.396-20.613-17.843-23.137  c-0.076-0.133-0.105-0.267-0.171-0.4c10.683-13.425,27.231-37.876,33.525-47.303c33.753-1.466,47.055-4.132,47.055-4.132  c0.124,0.19,17.281,22.557,25.413,42.58C205.997,208.329,194.096,219.642,187.497,226.03z M242.16,177.099  c-13.635,10.76-25.689,14.987-25.689,14.987c-5.398-10.626-24.279-41.114-24.279-41.114c6.246-15.52,8.77-36.924,10.055-47.34  l35.543-12.997c8.808,8.541,13.464,23.261,15.006,29.05c0.334,3.599,0.563,7.236,0.563,10.893c0,17.576-3.923,34.182-10.798,49.207  C242.541,177.994,242.16,177.099,242.16,177.099z"/>
</svg>